<?xml version="1.0" encoding="utf-8"?>
<!-- Generator: Adobe Illustrator 19.1.0, SVG Export Plug-In . SVG Version: 6.00 Build 0)  -->
<svg version="1.1" id="Layer_1" xmlns="http://www.w3.org/2000/svg" xmlns:xlink="http://www.w3.org/1999/xlink" x="0px" y="0px"
	 viewBox="0 0 130 134" enable-background="new 0 0 130 134" xml:space="preserve">
<g>
	<path d="M46,4c4.3,0,8.7,0,13,0c0.6,0.3,1.2,0.6,1.8,0.8c32.7,6.9,48.6,38.8,34.1,69.1c-1.3,2.8-0.5,4.1,1.3,5.9
		c10,10,19.9,20.1,29.8,30.2c0,1.3,0,2.7,0,4c-2.5,2.6-5,5.3-7.5,7.9c-4.9,4.9-7.1,4.9-12,0.1c-9.7-9.6-19.4-19.2-29.1-28.9
		c-1.2,0.6-2.4,1.2-3.5,1.8c-25.1,12.4-55.1,0.9-65.4-25.1C7.1,66.3,6.1,62.6,5,59c0-4.7,0-9.3,0-14c0.4-1.1,0.8-2.1,1.1-3.2
		c4.3-17.3,14.7-29.1,31.5-35.2C40.3,5.6,43.2,4.8,46,4z M21,52.2C21,69.7,35.2,83.9,52.7,84c17.6,0,32.1-14.5,31.9-32.2
		C84.4,34.3,70.2,20,52.8,20C35.1,20,20.9,34.3,21,52.2z"/>
	<path fill="#FFFFFF" d="M5,59c1.1,3.6,2.1,7.3,3.4,10.8c10.3,26,40.3,37.5,65.4,25.1c1.2-0.6,2.4-1.2,3.5-1.8
		c9.8,9.7,19.4,19.3,29.1,28.9c4.9,4.8,7.1,4.9,12-0.1c2.6-2.6,5-5.3,7.5-7.9c0,6,0,12,0,18c-40.3,0-80.7,0-121,0
		C5,107.7,5,83.3,5,59z"/>
	<path fill="#FFFFFF" d="M126,110c-9.9-10.1-19.8-20.2-29.8-30.2c-1.8-1.8-2.6-3.1-1.3-5.9c14.4-30.2-1.4-62.2-34.1-69.1
		C60.2,4.6,59.6,4.3,59,4c22.3,0,44.7,0,67,0C126,39.3,126,74.7,126,110z"/>
	<path fill="#FFFFFF" d="M46,4c-2.8,0.8-5.7,1.6-8.5,2.6c-16.8,6.1-27.1,18-31.5,35.2C5.8,42.9,5.4,43.9,5,45C5,31.3,5,17.7,5,4
		C18.7,4,32.3,4,46,4z"/>
	<path fill="#FFFFFF" d="M21,52.2C20.9,34.3,35.1,20,52.8,20c17.4,0,31.6,14.2,31.8,31.8C84.7,69.5,70.3,84,52.7,84
		C35.2,83.9,21,69.7,21,52.2z"/>
</g>
</svg>
